<svg id="visual" viewBox="0 0 960 540" width="960" height="540" xmlns="http://www.w3.org/2000/svg" xmlns:xlink="http://www.w3.org/1999/xlink" version="1.1"><g transform="translate(966.5468656967136 58.86841932188585)"><path d="M284.9 -469.3C350.9 -400.9 373.3 -290.8 396.6 -194.4C419.9 -98 444 -15.4 416.3 47.9C388.6 111.2 309.1 155.1 254.2 222.5C199.2 290 168.9 381 111.5 413.3C54 445.5 -30.6 419 -115.2 393.6C-199.8 368.1 -284.3 343.9 -316.1 285.8C-347.8 227.7 -326.8 135.8 -353.9 42.1C-381 -51.6 -456.1 -147.1 -439.4 -207.7C-422.6 -268.3 -314 -294 -225.5 -352.1C-137 -410.1 -68.5 -500.6 20.5 -532.5C109.5 -564.4 219 -537.7 284.9 -469.3" fill="#4dbaea"></path></g></svg>